<?xml version="1.0" standalone="no"?><!DOCTYPE svg PUBLIC "-//W3C//DTD SVG 1.1//EN" "http://www.w3.org/Graphics/SVG/1.1/DTD/svg11.dtd"><svg t="1783854215718" class="icon" viewBox="0 0 1024 1024" version="1.1" xmlns="http://www.w3.org/2000/svg" p-id="7187" xmlns:xlink="http://www.w3.org/1999/xlink" width="200" height="200"><path d="M716.480499 0H307.519501c-51.120125 0-94.25273 46.327613-94.25273 99.045242v825.909516c0 55.912637 43.132605 99.045242 94.25273 99.045242h410.558502c51.120125 0 94.25273-46.327613 94.25273-99.045242V99.045242C810.733229 46.327613 767.600624 0 716.480499 0z m9.585024 928.149766c0 7.98752-4.792512 12.780031-7.98752 12.780031H307.519501c-4.792512 0-7.98752-4.792512-7.98752-12.780031V99.045242c0-7.98752 4.792512-12.780031 7.98752-12.780031h410.558502c4.792512 0 7.98752 4.792512 7.98752 12.780031v829.104524z" p-id="7188" fill="#2c2c2c"></path><path d="M468.867395 856.26209a43.132605 43.132605 0 1 0 86.26521 0 43.132605 43.132605 0 1 0-86.26521 0Z" p-id="7189" fill="#2c2c2c"></path><path d="M555.132605 170.932917h-84.667706c-25.560062 0-43.132605 17.572543-43.132606 43.132606s17.572543 43.132605 43.132606 43.132605h84.667706c25.560062 0 43.132605-17.572543 43.132606-43.132605s-17.572543-43.132605-43.132606-43.132606z" p-id="7190" fill="#2c2c2c"></path></svg>