<?xml version="1.0" standalone="no"?><!DOCTYPE svg PUBLIC "-//W3C//DTD SVG 1.1//EN" "http://www.w3.org/Graphics/SVG/1.1/DTD/svg11.dtd"><svg t="1782649858807" class="icon" viewBox="0 0 1024 1024" version="1.1" xmlns="http://www.w3.org/2000/svg" p-id="15776" xmlns:xlink="http://www.w3.org/1999/xlink" width="200" height="200"><path d="M511.802011 0a512.000198 512.000198 0 1 0 316.782798 915.106309 43.161656 43.161656 0 0 0 7.127613-60.188732 42.765678 42.765678 0 0 0-59.792753-7.127613 426.468842 426.468842 0 1 1 163.935098-336.185745 167.102926 167.102926 0 0 1-66.524388 149.283894l-3.167828 2.375871c-12.671312 9.107505-46.725463 26.134581-65.336452 17.027076-7.91957-3.959785-34.054151-24.550667-34.054151-127.505077v-5.543699a1355.03842 1355.03842 0 0 0 27.718495-158.391399 643.465059 643.465059 0 0 1 8.711527-78.799721 42.765678 42.765678 0 0 0-79.195699-23.362731 652.968543 652.968543 0 0 0-13.067291 72.860043c-39.59785-52.66514-106.914194-89.491141-215.808281-89.49114a253.822217 253.822217 0 0 0-239.96297 187.297829 258.969938 258.969938 0 0 0 268.473422 324.30639 209.076647 209.076647 0 0 0 178.586302-88.699183 118.793549 118.793549 0 0 0 79.1957 73.256022 167.102926 167.102926 0 0 0 131.86084-33.262194 247.88254 247.88254 0 0 0 104.142345-220.560024A512.396176 512.396176 0 0 0 511.802011 0z m14.255226 696.526178a187.29783 187.29783 0 0 1-158.3914-68.108302 178.190324 178.190324 0 0 1-30.094365-147.699979 169.082819 169.082819 0 0 1 158.391399-125.525184c88.303205 0 178.586303 22.174796 184.52598 182.546087-23.75871 93.054947-66.920366 158.787378-154.431614 158.787378z m330.642046-17.423054z m-2.375871 6.731635a9.899462 9.899462 0 0 0 0-2.77185 5.543699 5.543699 0 0 0 0 2.77185z" p-id="15777" fill="#e6e6e6"></path></svg>