<?xml version="1.0" standalone="no"?><!DOCTYPE svg PUBLIC "-//W3C//DTD SVG 1.1//EN" "http://www.w3.org/Graphics/SVG/1.1/DTD/svg11.dtd"><svg t="1782648764213" class="icon" viewBox="0 0 1024 1024" version="1.1" xmlns="http://www.w3.org/2000/svg" p-id="12670" width="200" height="200" xmlns:xlink="http://www.w3.org/1999/xlink"><path d="M906.656 64a32 32 0 0 1 32 32v810.656a32 32 0 0 1-32 32H96a32 32 0 0 1-32-32V480a32 32 0 0 1 32-32h352V96a32 32 0 0 1 28.256-31.776L480 64z m-32 64H512v352a32 32 0 0 1-28.256 31.776L480 512H128v362.656h746.656V128z m-181.312 106.656a32 32 0 0 1 31.776 28.288l0.224 3.712v426.688a32 32 0 0 1-28.288 31.776l-3.712 0.224-349.44-0.032 30.72 30.72a32 32 0 0 1 2.656 42.24l-2.656 3.008a32 32 0 0 1-42.24 2.688l-3.008-2.688-85.344-85.312-2.336-2.624a32.128 32.128 0 0 1-0.224-0.256l2.56 2.88a32.192 32.192 0 0 1-9.376-22.624v-1.056l0.128-1.856-0.128 2.88a32.288 32.288 0 0 1 6.72-19.584l0.224-0.288c0.768-0.96 1.6-1.856 2.432-2.72l85.344-85.344a32 32 0 0 1 47.904 42.24l-2.656 3.008-30.72 30.688h317.408V266.656a32 32 0 0 1 28.288-31.776l3.744-0.224z" fill="#515151" p-id="12671"></path></svg>